<svg width="150" height="150" viewBox="0 0 150 150" fill="none" xmlns="http://www.w3.org/2000/svg">
<rect width="150" height="150" fill="#495FEF"/>
<path d="M43.5724 71.429V114H23.1499V40.3636H42.6136V53.3555H43.4766C45.1065 49.0728 47.8391 45.685 51.6744 43.1921C55.5096 40.6673 60.1598 39.4048 65.625 39.4048C70.7386 39.4048 75.1971 40.5234 79.0004 42.7607C82.8036 44.9979 85.7599 48.1939 87.8693 52.3487C89.9787 56.4716 91.0334 61.3935 91.0334 67.1143V114H70.6108V70.7578C70.6428 66.2514 69.4922 62.7358 67.1591 60.2109C64.826 57.6541 61.614 56.3757 57.5231 56.3757C54.7745 56.3757 52.3455 56.967 50.2362 58.1495C48.1587 59.332 46.5288 61.0579 45.3462 63.3271C44.1957 65.5643 43.6044 68.2649 43.5724 71.429ZM119.066 115.246C115.902 115.246 113.186 114.128 110.917 111.891C108.679 109.621 107.561 106.905 107.561 103.741C107.561 100.609 108.679 97.924 110.917 95.6868C113.186 93.4496 115.902 92.331 119.066 92.331C122.135 92.331 124.819 93.4496 127.12 95.6868C129.422 97.924 130.572 100.609 130.572 103.741C130.572 105.85 130.029 107.784 128.942 109.542C127.888 111.267 126.497 112.658 124.771 113.712C123.046 114.735 121.144 115.246 119.066 115.246Z" fill="white"/>
</svg>
